<?xml version="1.0" encoding="UTF-8" standalone="no"?>
<!-- Created with Inkscape (http://www.inkscape.org/) -->

<svg
   width="786.01343mm"
   height="121.33057mm"
   viewBox="0 0 786.01345 121.33056"
   version="1.1"
   id="svg372"
   xmlns="http://www.w3.org/2000/svg"
   xmlns:svg="http://www.w3.org/2000/svg">
  <defs
     id="defs369" />
  <g
     id="layer1"
     transform="translate(-34.808211,-106.12747)">
    <path
       id="path745"
       style="font-weight:800;font-size:160.883px;font-family:Montserrat;-inkscape-font-specification:'Montserrat, Ultra-Bold';fill:#1d4ed8;fill-opacity:1;stroke-width:7.12575;stroke-linecap:round;stroke-miterlimit:0;paint-order:fill markers stroke"
       d="m 825.22456,103.04481 c -11.62245,0 -20.57933,3.04847 -26.87038,9.14547 -6.18442,5.99366 -9.27666,14.05382 -9.27666,24.18103 v 2.17009 H 776.442 v 22.01145 h 12.63552 v 58.90341 h 30.38891 v -58.90341 h 19.83279 V 138.5414 H 818.6665 v -1.86 c 0,-3.72021 0.85341,-6.45845 2.55946,-8.21522 1.81268,-1.8601 4.31829,-2.79025 7.51713,-2.79025 1.59942,0 3.19858,0.25851 4.798,0.77521 1.59942,0.41335 3.03892,0.98157 4.31846,1.70496 l 7.51766,-20.77111 c -2.45244,-1.44675 -5.49164,-2.53202 -9.11699,-3.25538 -3.62535,-0.72339 -7.30368,-1.0848 -11.03566,-1.0848 z m -413.93113,1.39488 v 115.01657 h 30.38944 v -20.55285 l 9.01587,-8.8976 24.25184,29.45045 h 36.78677 l -38.95292,-48.07205 35.91392,-35.94265 h -35.98684 l -31.02864,29.25477 v -60.25664 z m -337.798127,3.27144 v 0.17461 a 27.181134,29.764928 0 0 0 -24.726049,26.79015 30.980235,35.523665 0 0 0 -12.91973,28.83981 30.980235,35.523665 0 0 0 11.580655,27.67475 27.682504,27.965753 0 0 0 -0.04737,1.27897 27.682504,27.965753 0 0 0 26.232241,27.87896 v 0.0467 h 60.81401 c 10.218,0 18.7647,-1.22917 25.65318,-3.67736 4.36131,-1.2465 8.13446,-2.91201 11.29805,-5.01202 7.89047,-5.27027 11.83612,-12.6076 11.83612,-22.01144 0,-6.30368 -1.65273,-11.62558 -4.95819,-15.96582 -3.10999,-4.32014 -7.49074,-7.60559 -13.12038,-9.87451 -0.75771,-0.3863 -1.54337,-0.74906 -2.3535,-1.09132 4.36705,-2.31537 7.82573,-5.21753 10.35548,-8.71998 3.09222,-4.2369 4.63833,-9.14567 4.63833,-14.72598 0,-7.1343 -2.58034,-13.09173 -7.7199,-17.88201 -1.55559,-1.9803 -3.45561,-3.79867 -5.70491,-5.45256 -7.29333,-5.47002 -18.34092,-8.20518 -33.1421,-8.20518 H 73.730014 v -0.0657 z m 0,25.32001 v 61.65352 a 17.066933,15.579553 0 0 1 -6.785852,-12.40235 17.066933,15.579553 0 0 1 0.868589,-4.81985 12.456552,16.181798 0 0 1 -4.83951,-12.76713 12.456552,16.181798 0 0 1 5.303609,-13.23928 14.291172,18.22868 0 0 1 -0.335301,-3.80681 14.291172,18.22868 0 0 1 5.788465,-14.6181 z m 34.548237,0.0853 h 21.75198 c 4.97579,0 8.77513,0.77533 11.42897,2.30556 1.26111,1.59288 1.89206,3.63956 1.89206,6.14046 0,3.64668 -1.34065,6.38134 -4.02201,8.20468 -2.68138,1.82334 -6.70329,2.73506 -12.06605,2.73506 h -18.98495 z m 133.71109,0.92975 c -9.48988,0 -17.91318,1.8603 -25.27051,5.5805 -7.35732,3.61687 -13.16892,8.68026 -17.43405,15.19061 -4.1585,6.51035 -6.23766,14.00277 -6.23766,22.47657 0,8.47379 2.07916,16.01742 6.23766,22.63111 4.26513,6.51036 10.07673,11.62544 17.43405,15.34565 7.35733,3.7202 15.78063,5.5805 25.27051,5.5805 9.4899,0 17.91373,-1.8603 25.27105,-5.5805 7.46397,-3.72021 13.27504,-8.83529 17.43352,-15.34565 4.15849,-6.61369 6.23819,-14.15732 6.23819,-22.63111 0,-8.4738 -2.0797,-15.96622 -6.23819,-22.47657 -4.15848,-6.51035 -9.96955,-11.57374 -17.43352,-15.19061 -7.35732,-3.7202 -15.78115,-5.5805 -25.27105,-5.5805 z m 106.52192,0 c -9.48989,0 -17.91371,1.8603 -25.27105,5.5805 -7.35734,3.61687 -13.1684,8.68026 -17.43352,15.19061 -4.15849,6.51035 -6.23766,14.00277 -6.23766,22.47657 0,8.47379 2.07917,16.01742 6.23766,22.63111 4.26512,6.51036 10.07618,11.62544 17.43352,15.34565 7.35734,3.7202 15.78116,5.5805 25.27105,5.5805 9.4899,0 17.91319,-1.8603 25.27051,-5.5805 7.46396,-3.72021 13.27556,-8.83529 17.43405,-15.34565 4.1585,-6.61369 6.23766,-14.15732 6.23766,-22.63111 0,-8.4738 -2.07916,-15.96622 -6.23766,-22.47657 -4.15849,-6.51035 -9.97009,-11.57374 -17.43405,-15.19061 -7.35732,-3.7202 -15.78061,-5.5805 -25.27051,-5.5805 z m 205.36596,0 c -9.06338,0 -16.74093,1.24037 -23.03198,3.7205 -6.29106,2.3768 -11.08905,5.68379 -14.39452,9.92068 -3.19884,4.13356 -4.79853,8.88672 -4.79853,14.26035 0,4.75359 0.90645,8.68051 2.71913,11.78068 1.81267,3.10017 4.21167,5.58041 7.19726,7.44051 3.09221,1.75676 6.45124,3.10004 10.07659,4.03009 3.73199,0.82672 7.41031,1.49886 11.03566,2.01555 3.62535,0.5167 6.93133,0.98152 9.91693,1.39487 3.0922,0.41337 5.54424,1.0333 7.35693,1.86001 1.9193,0.72338 2.87933,1.91204 2.87933,3.56546 0,1.75676 -1.01306,3.15173 -3.039,4.18513 -1.91931,1.03339 -5.43799,1.54992 -10.55613,1.54992 -5.22478,0 -10.55637,-0.67164 -15.99438,-2.01505 -5.43803,-1.44675 -10.18299,-3.35876 -14.23486,-5.73555 l -9.11646,20.15145 c 4.26512,2.48013 9.86297,4.54674 16.79379,6.20017 7.03745,1.65342 14.23498,2.48017 21.59231,2.48017 9.38327,0 17.22047,-1.23987 23.51152,-3.72 6.39768,-2.48014 11.19568,-5.78713 14.39452,-9.92068 3.30547,-4.13356 4.9582,-8.78382 4.9582,-13.95077 0,-4.75359 -0.90645,-8.62882 -2.71913,-11.62564 -1.81267,-3.10017 -4.26472,-5.5287 -7.35693,-7.28547 -2.98558,-1.8601 -6.34461,-3.25508 -10.07659,-4.18513 -3.62535,-0.93005 -7.25065,-1.60169 -10.876,-2.01504 -3.62534,-0.5167 -6.98437,-0.98203 -10.07659,-1.39538 -2.98558,-0.5167 -5.38458,-1.18834 -7.19726,-2.01504 -1.81267,-0.93005 -2.71913,-2.22162 -2.71913,-3.87505 0,-1.65342 1.01307,-3.0484 3.039,-4.18513 2.13256,-1.13672 5.75784,-1.70546 10.87599,-1.70546 3.8386,0 7.89033,0.46533 12.15546,1.39538 4.26511,0.8267 8.5306,2.42849 12.79572,4.80529 l 9.11646,-19.9964 c -4.26512,-2.37679 -9.54313,-4.13319 -15.83419,-5.26992 -6.18442,-1.24007 -12.31532,-1.8605 -18.39312,-1.8605 z m 219.12076,0 c -8.21036,0 -15.19467,1.60179 -20.95258,4.80529 -3.2279,1.73797 -5.93428,3.99833 -8.15686,6.74308 v -10.153 h -28.94978 v 84.0147 h 30.38891 v -38.59743 c 0,-7.33707 1.91952,-12.60726 5.75813,-15.81077 3.83861,-3.30684 8.85036,-4.96034 15.03478,-4.96034 1.17291,0 2.23902,0.0517 3.19867,0.15504 1.06628,0 2.29256,0.1034 3.67873,0.31009 z m -169.05873,1.39537 v 46.96769 c 0,8.78381 1.54612,16.06892 4.63833,21.8559 3.19884,5.68364 7.5704,9.86909 13.11505,12.5559 5.65129,2.68681 11.99594,4.03008 19.03339,4.03008 6.61094,0 12.74183,-1.49838 18.39312,-4.49521 2.77536,-1.5225 5.22501,-3.4237 7.35746,-5.69391 v 8.79425 h 28.94924 v -84.0147 h -30.38891 v 40.45693 c 0,4.65026 -0.74627,8.47376 -2.23906,11.4706 -1.4928,2.89349 -3.46535,5.01231 -5.9178,6.35572 -2.45244,1.34341 -5.17181,2.01504 -8.15739,2.01504 -4.585,0 -8.15672,-1.39498 -10.71579,-4.18513 -2.45245,-2.79015 -3.67873,-7.44041 -3.67873,-13.95077 v -42.16239 z m -361.94991,22.01095 c 3.51873,0 6.61097,0.77504 9.27666,2.32513 2.77234,1.55008 4.95864,3.8235 6.55806,6.82034 1.59942,2.89349 2.39874,6.459 2.39874,10.69589 0,4.2369 -0.79932,7.9053 -2.39874,11.00547 -1.59942,2.99682 -3.78572,5.27026 -6.55806,6.82034 -2.66569,1.55009 -5.75793,2.32513 -9.27666,2.32513 -3.41209,0 -6.50432,-0.77504 -9.27666,-2.32513 -2.66569,-1.55008 -4.85148,-3.82352 -6.55752,-6.82034 -1.59942,-3.10017 -2.39874,-6.76857 -2.39874,-11.00547 0,-4.23689 0.79932,-7.8024 2.39874,-10.69589 1.70604,-2.99684 3.89183,-5.27026 6.55752,-6.82034 2.77234,-1.55009 5.86457,-2.32513 9.27666,-2.32513 z m 106.52192,0 c 3.51872,0 6.61096,0.77504 9.27666,2.32513 2.77233,1.55008 4.9581,3.8235 6.55752,6.82034 1.59942,2.89349 2.39927,6.459 2.39927,10.69589 0,4.2369 -0.79985,7.9053 -2.39927,11.00547 -1.59942,2.99682 -3.78519,5.27026 -6.55752,6.82034 -2.6657,1.55009 -5.75794,2.32513 -9.27666,2.32513 -3.41209,0 -6.50433,-0.77504 -9.27666,-2.32513 -2.6657,-1.55008 -4.85149,-3.82352 -6.55753,-6.82034 -1.59942,-3.10017 -2.39927,-6.76857 -2.39927,-11.00547 0,-4.23689 0.79985,-7.8024 2.39927,-10.69589 1.70604,-2.99684 3.89183,-5.27026 6.55753,-6.82034 2.77233,-1.55009 5.86457,-2.32513 9.27666,-2.32513 z m -240.23301,17.82631 h 26.54998 c 2.40445,0 4.53319,0.1928 6.41649,0.55645 1.2249,0.42869 2.30475,0.96167 3.23273,1.60411 2.89587,1.82334 4.34401,4.66564 4.34401,8.5268 0,3.86119 -1.44814,6.7568 -4.34401,8.68737 -2.2823,1.49227 -5.47826,2.36325 -9.55661,2.63421 -0.0317,6e-5 -0.0608,0.002 -0.0926,0.002 h -26.54998 z"
       transform="scale(0.97095323,1.0299157)" />
  </g>
</svg>
